<?xml version="1.0" standalone="no"?>
<!DOCTYPE svg PUBLIC "-//W3C//DTD SVG 20010904//EN"
 "http://www.w3.org/TR/2001/REC-SVG-20010904/DTD/svg10.dtd">
<svg version="1.0" xmlns="http://www.w3.org/2000/svg"
 width="1142.000000pt" height="1142.000000pt" viewBox="0 0 1142.000000 1142.000000"
 preserveAspectRatio="xMidYMid meet">
<metadata>
Created by potrace 1.11, written by Peter Selinger 2001-2013
</metadata>
<g transform="translate(0.000000,1142.000000) scale(0.100000,-0.100000)"
fill="#000000" stroke="none">
<path d="M5459 9866 c-2 -2 -40 -7 -84 -10 -641 -51 -1327 -307 -1865 -696
-226 -163 -465 -385 -500 -463 -19 -43 -27 -126 -16 -174 23 -104 111 -179
222 -190 103 -11 163 21 335 179 380 347 849 601 1349 729 115 30 189 46 245
55 181 28 235 35 325 41 187 12 488 6 602 -12 12 -2 50 -6 83 -10 33 -3 67 -8
75 -10 8 -2 31 -6 50 -9 111 -18 306 -68 453 -117 422 -141 818 -374 1146
-675 31 -28 72 -64 91 -80 19 -16 40 -34 47 -40 7 -7 33 -22 59 -35 123 -59
293 11 339 140 21 62 19 156 -6 210 -53 118 -455 450 -776 643 -351 210 -800
384 -1163 453 -14 3 -36 7 -50 9 -14 3 -43 8 -65 11 -22 3 -53 8 -70 10 -16 3
-43 7 -59 10 -16 2 -59 7 -95 11 -36 3 -79 8 -96 11 -33 6 -571 14 -576 9z"/>
<path d="M5577 8674 c-1 -1 -44 -4 -95 -8 -77 -5 -243 -31 -327 -50 -100 -22
-284 -76 -330 -96 -11 -5 -60 -25 -110 -45 -49 -20 -118 -52 -153 -71 -34 -18
-64 -34 -67 -34 -3 0 -15 -6 -28 -13 -12 -8 -58 -36 -102 -62 -77 -47 -243
-167 -308 -223 -74 -65 -171 -171 -198 -217 -70 -121 -11 -287 121 -344 53
-23 145 -31 190 -16 40 12 97 55 196 145 51 46 224 173 298 219 132 83 329
167 501 215 201 57 306 70 555 70 175 -1 273 -8 375 -30 39 -9 79 -17 90 -20
29 -5 171 -49 240 -74 136 -49 338 -158 475 -257 44 -32 183 -145 209 -170 46
-43 112 -85 155 -98 81 -23 174 -2 239 55 81 72 110 202 65 298 -30 64 -144
174 -355 342 -37 29 -220 144 -293 183 -215 116 -512 222 -710 253 -14 2 -38
6 -55 9 -16 2 -48 7 -70 10 -22 3 -53 7 -70 10 -84 12 -427 28 -438 19z"/>
<path d="M5628 7485 c-2 -1 -43 -5 -93 -8 -257 -15 -579 -167 -775 -366 -71
-72 -90 -112 -90 -193 0 -165 101 -268 262 -268 64 0 107 19 187 83 218 175
401 242 631 233 200 -8 347 -70 550 -231 94 -74 129 -88 209 -83 151 11 242
110 242 261 0 57 -5 78 -29 120 -32 58 -149 165 -254 234 -132 86 -353 180
-462 197 -83 13 -369 29 -378 21z"/>
<path d="M5641 6618 c-93 -16 -186 -98 -217 -192 -48 -143 20 -305 158 -378
63 -33 184 -33 250 1 154 79 220 246 154 394 -59 133 -193 202 -345 175z"/>
<path d="M5417 6018 c-3 -7 -26 -65 -52 -128 -26 -63 -79 -180 -118 -260 -275
-558 -626 -1028 -1088 -1455 -199 -185 -555 -427 -825 -563 -251 -126 -632
-260 -879 -308 -11 -2 -43 -8 -71 -14 -28 -6 -64 -13 -80 -16 -16 -2 -56 -9
-89 -15 -78 -14 -149 -23 -280 -34 -100 -9 -493 -16 -1080 -19 -582 -4 -673
-8 -726 -37 -30 -15 -76 -68 -102 -114 -30 -55 -30 -172 0 -230 25 -47 74 -95
123 -121 33 -18 82 -19 1015 -22 539 -2 981 -5 983 -7 3 -2 6 -206 7 -452 2
-246 6 -461 9 -477 25 -110 122 -187 240 -192 155 -7 259 90 271 251 2 39 5
251 6 473 l1 402 3029 0 3029 0 0 -413 c1 -468 4 -526 30 -576 89 -176 355
-187 454 -19 14 24 28 57 31 73 4 17 8 232 10 478 1 247 5 450 7 452 2 2 442
5 978 7 914 3 978 4 1015 21 87 39 155 141 155 232 0 84 -53 184 -122 229 -51
34 -128 38 -733 42 -561 3 -1001 10 -1070 18 -16 2 -66 6 -110 10 -44 4 -87 9
-95 11 -8 2 -35 6 -60 9 -25 3 -56 8 -70 11 -14 3 -36 7 -50 10 -280 52 -514
120 -780 228 -544 219 -1076 614 -1490 1107 -30 36 -57 67 -60 70 -3 3 -47 59
-97 126 -246 325 -470 711 -623 1074 -29 69 -57 129 -62 134 -5 6 -19 -1 -35
-16 -116 -111 -389 -108 -509 4 -23 21 -33 26 -37 16z m26 -1959 c2 -448 1
-822 -1 -832 -4 -17 -42 -18 -859 -16 -469 1 -856 6 -859 10 -3 5 -1 9 4 9 17
0 341 208 457 294 219 162 328 258 560 491 246 247 421 460 604 738 46 70 86
126 88 124 2 -2 5 -370 6 -818z m637 680 c207 -303 370 -500 629 -760 199
-199 395 -368 555 -480 97 -67 219 -149 223 -149 3 0 23 -13 46 -28 23 -16 75
-46 114 -68 40 -21 73 -41 73 -44 0 -4 -1521 -4 -1718 -1 l-28 1 2 813 c1 446
2 823 3 836 1 28 -4 35 101 -120z"/>
</g>
</svg>
